<?xml version="1.0" encoding="UTF-8" standalone="no"?>
<svg
   xmlns:dc="http://purl.org/dc/elements/1.1/"
   xmlns:cc="http://creativecommons.org/ns#"
   xmlns:rdf="http://www.w3.org/1999/02/22-rdf-syntax-ns#"
   xmlns:svg="http://www.w3.org/2000/svg"
   xmlns="http://www.w3.org/2000/svg"
   xmlns:sodipodi="http://sodipodi.sourceforge.net/DTD/sodipodi-0.dtd"
   xmlns:inkscape="http://www.inkscape.org/namespaces/inkscape"
   width="69.490074mm"
   height="69.490074mm"
   viewBox="0 0 69.490074 69.490074"
   version="1.1"
   id="svg8"
   inkscape:version="1.0.1 (3bc2e813f5, 2020-09-07)"
   sodipodi:docname="xlwings-green.svg">
  <defs
     id="defs2" />
  <sodipodi:namedview
     id="base"
     pagecolor="#ffffff"
     bordercolor="#666666"
     borderopacity="1.0"
     inkscape:pageopacity="0.0"
     inkscape:pageshadow="2"
     inkscape:zoom="0.98994949"
     inkscape:cx="254.9328"
     inkscape:cy="258.15064"
     inkscape:document-units="mm"
     inkscape:current-layer="layer1"
     inkscape:document-rotation="0"
     showgrid="false"
     fit-margin-top="0"
     fit-margin-left="0"
     fit-margin-right="0"
     fit-margin-bottom="0"
     inkscape:window-width="1267"
     inkscape:window-height="1040"
     inkscape:window-x="234"
     inkscape:window-y="0"
     inkscape:window-maximized="0" />
  <metadata
     id="metadata5">
    <rdf:RDF>
      <cc:Work
         rdf:about="">
        <dc:format>image/svg+xml</dc:format>
        <dc:type
           rdf:resource="http://purl.org/dc/dcmitype/StillImage" />
        <dc:title></dc:title>
      </cc:Work>
    </rdf:RDF>
  </metadata>
  <g
     inkscape:label="Layer 1"
     inkscape:groupmode="layer"
     id="layer1"
     transform="translate(-55.057522,-20.312485)">
    <g
       id="g24"
       transform="translate(-14.570838,-29.479232)">
      <path
         style="fill:#23a538;stroke-width:0.264583"
         d="m 95.250002,114.69189 c -3.966816,-0.5106 -8.79095,-1.79773 -12.23698,-3.26494 l -0.992187,-0.42244 v -4.49437 c 0,-2.4719 0.07282,-4.49437 0.161826,-4.49437 0.08901,0 1.309396,0.4305 2.71198,0.95666 3.547359,1.33074 6.788169,2.11101 10.424848,2.50991 l 3.105513,0.34065 v 4.57868 4.57869 l -0.727604,-0.0336 c -0.400183,-0.0184 -1.501511,-0.13317 -2.447396,-0.25492 z m 4.293232,-4.27559 0.07239,-4.56407 1.719796,-0.0617 c 4.5543,-0.16348 9.01663,-0.82789 13.82448,-2.05837 l 0.7276,-0.18622 v 4.76946 4.76947 l -2.44739,0.55641 c -3.57443,0.81263 -7.8706,1.32806 -11.11875,1.33394 l -2.850524,0.005 z m 17.462506,-2.4704 0.0724,-4.72185 3.30729,-1.33524 c 3.84069,-1.55058 7.11978,-3.278306 10.37074,-5.46424 1.26993,-0.853901 2.43259,-1.552546 2.58369,-1.552546 0.18025,0 0.27474,1.723326 0.27474,5.01106 v 5.011056 l -2.34561,1.45094 c -4.20601,2.60173 -10.85195,5.62594 -13.54874,6.16529 l -0.7869,0.15738 z m -22.946363,-3.58518 c -2.662426,-0.33631 -5.926908,-1.19116 -9.194271,-2.40765 l -2.844271,-1.05897 v -4.626844 c 0,-4.304837 0.03222,-4.613201 0.46302,-4.430747 5.360135,2.270154 9.35109,3.244115 14.882814,3.632034 l 0.926041,0.06494 0.07239,4.564057 0.0724,4.56407 -1.26302,-0.0335 c -0.694658,-0.0184 -2.096455,-0.13875 -3.115101,-0.26742 z m 22.946633,-7.124549 0.0721,-4.779603 2.38125,-1.000289 c 4.49159,-1.886783 7.81693,-3.796951 12.0709,-6.933869 0.96369,-0.710629 1.82689,-1.292053 1.91823,-1.292053 0.0913,0 0.16608,2.243735 0.16608,4.986075 0,4.415293 -0.053,5.033246 -0.46302,5.398106 -0.87187,0.775851 -5.30505,3.607488 -7.51486,4.800018 -2.05666,1.109885 -7.90816,3.601214 -8.45832,3.601214 -0.14324,0 -0.21463,-1.97944 -0.17238,-4.779599 z M 95.527764,94.320034 C 91.424613,93.924911 86.83699,92.744342 83.265432,91.164473 l -1.244597,-0.550545 v -4.485535 c 0,-2.467046 0.09592,-4.485537 0.213168,-4.485537 0.117242,0 1.246188,0.416547 2.508767,0.925661 2.956668,1.192226 6.756684,2.175119 9.30057,2.40564 1.846837,0.167354 2.105954,0.266766 3.195728,1.226023 l 1.185934,1.043898 v 3.681682 c 0,2.788182 -0.08026,3.672931 -0.330729,3.645628 -0.181901,-0.01984 -1.336831,-0.13294 -2.566509,-0.251354 z m 4.154009,0.136279 c -0.26937,-0.27373 -0.253881,-5.669706 0.01627,-5.669706 0.225253,0 2.362867,2.513359 3.769237,4.431771 l 0.82433,1.124479 h -1.04429 c -0.57436,0 -1.56693,0.0709 -2.2057,0.157551 -0.63878,0.08665 -1.250709,0.06681 -1.359849,-0.04409 z m 9.326567,-1.303353 c 0,-0.673836 0.69823,-3.325943 1.75817,-6.678063 l 0.94011,-2.973171 1.892,-0.560977 c 1.0406,-0.308539 1.9813,-0.614749 2.09045,-0.680469 0.10914,-0.06572 0.19843,2.063631 0.19843,4.731885 v 4.851374 l -2.71198,0.720646 c -4.1801,1.110763 -4.16718,1.10894 -4.16718,0.588775 z m 7.99754,-6.652925 c 0.0592,-3.825666 0.14385,-4.70639 0.46912,-4.8816 0.21828,-0.117578 1.82638,-0.91087 3.57355,-1.762871 3.5107,-1.711981 6.5247,-3.618378 9.89609,-6.259417 1.22366,-0.95858 2.32499,-1.742874 2.44739,-1.742874 0.12241,0 0.22256,2.25453 0.22256,5.010065 v 5.010066 l -2.73335,1.991961 c -1.50334,1.095578 -3.83299,2.641758 -5.177,3.435958 -2.51799,1.487924 -7.66884,3.866534 -8.37293,3.866534 -0.34156,0 -0.38749,-0.658773 -0.32543,-4.667822 z"
         id="path28"
         sodipodi:nodetypes="cscsssscccccccccscccscccccsssscsscccscsssccccccccsssssssccsscssssscsssssscsssssscssscsscssssscsssc" />
      <path
         style="fill:#3c3c3b;stroke-width:0.264583"
         d="m 99.747919,100.19831 v -4.4633 l 0.992191,-0.163997 c 0.5457,-0.0902 1.7254,-0.165309 2.62155,-0.16691 l 1.62937,-0.0029 1.14876,1.822453 c 0.63181,1.00235 1.2821,2.044147 1.44507,2.315104 0.24344,0.40472 0.35574,0.06063 0.62921,-1.927831 0.18309,-1.331264 0.40694,-2.527467 0.49743,-2.658229 0.0905,-0.13076 1.47423,-0.559941 3.07496,-0.953738 1.60073,-0.393796 3.17831,-0.789057 3.50573,-0.878359 l 0.59531,-0.162367 v 4.75378 4.753774 l -2.97656,0.72215 c -3.7286,0.9046 -7.84473,1.46181 -10.84792,1.46852 l -2.315101,0.005 z m 7.408331,-3.151377 c 0,-0.648467 -3.77971,-5.886323 -5.81906,-8.063952 -5.176566,-5.527567 -11.561881,-9.64404 -18.281751,-11.785842 -3.384538,-1.078743 -5.93173,-1.444164 -9.305,-1.334902 -1.563485,0.05064 -2.842566,0.06381 -2.842402,0.02926 1.63e-4,-0.03455 0.803969,-0.466077 1.786235,-0.958948 4.34996,-2.182678 8.437362,-3.16094 13.163021,-3.150389 6.117633,0.01365 11.629068,2.02093 16.337147,5.950003 1.11942,0.934196 1.27492,0.99518 1.43092,0.561166 2.59372,-7.216265 7.03975,-13.707593 12.23601,-17.864954 2.66972,-2.135948 5.71348,-3.943514 8.84095,-5.250287 2.62696,-1.09764 7.13381,-2.482565 7.5871,-2.331467 0.14949,0.04983 -0.54854,0.716214 -1.55117,1.480853 -1.00263,0.764639 -3.00205,2.614417 -4.44315,4.110618 -9.10442,9.452529 -16.76796,24.300986 -18.47476,35.795666 -0.37187,2.50444 -0.66409,3.742314 -0.66409,2.813177 z"
         id="path26"
         sodipodi:nodetypes="ccsscsssssscccscccsssssssscssssssss" />
    </g>
  </g>
</svg>
